# AST/ASF file generated using VICON BodyLanguage
# -----------------------------------------------
:version 1.10
:name VICON
:units
  mass 1.0
  length 0.45
  angle deg
:documentation
   .ast/.asf automatically generated from VICON data using
   VICON BodyBuilder and BodyLanguage model FoxedUp or BRILLIANT.MOD
:root
   order TX TY TZ RX RY RZ
   axis XYZ
   position 0 0 0  
   orientation 0 0 0 
:bonedata
  begin
     id 1 
     name lhipjoint
     direction 0.567725 -0.736092 0.368589 
     length 2.42353 
     axis 0 0 0  XYZ
  end
  begin
     id 2 
     name lfemur
     direction 0.34202 -0.939693 0  
     length 7.24894  
     axis 0 0 20  XYZ
    dof rx ry rz
    limits (-160.0 20.0)
           (-70.0 70.0)
           (-60.0 70.0)
  end
  begin
     id 3 
     name ltibia
     direction 0.34202 -0.939693 0   
     length 7.6997   
     axis 0 0 20   XYZ
    dof rx
    limits (-10.0 170.0)
  end
  begin
     id 4 
     name lfoot
     direction 0.100767 -0.276854 0.955614   
     length 2.37556   
     axis -90 7.62852e-016 20   XYZ
    dof rx rz
    limits (-45.0 90.0)
           (-70.0 20.0)
  end
  begin
     id 5 
     name ltoes
     direction 1.53592e-011 -4.21894e-011 1   
     length 1.18363   
     axis -90 7.62852e-016 20   XYZ
    dof rx
    limits (-90.0 20.0)
  end
  begin
     id 6 
     name rhipjoint
     direction -0.556459 -0.742938 0.372017   
     length 2.4012  
     axis 0 0 0  XYZ 
  end
  begin
     id 7 
     name rfemur
     direction -0.34202 -0.939693 0   
     length 7.5119   
     axis 0 0 -20   XYZ
    dof rx ry rz
    limits (-160.0 20.0)
           (-70.0 70.0)
           (-70.0 60.0)
  end
  begin
     id 8 
     name rtibia
     direction -0.34202 -0.939693 0   
     length 7.50155   
     axis 0 0 -20   XYZ
    dof rx
    limits (-10.0 170.0)
 end
 begin
     id 9 
     name rfoot
     direction -0.118427 -0.325376 0.938139   
     length 2.32487  
     axis -90 -7.62852e-016 -20   XYZ
    dof rx rz
    limits (-45.0 90.0)
           (-20.0 70.0)
  end
  begin
     id 10 
     name rtoes
     direction -1.53525e-011 -4.21868e-011 1   
     length 1.15233   
     axis -90 -7.62852e-016 -20   XYZ
    dof rx
    limits (-90.0 20.0)
  end
  begin
     id 11 
     name lowerback
     direction 0.0287568 0.999577 -0.00434502   
     length 2.15243   
     axis 0 0 0   XYZ
    dof rx ry rz
    limits (-20.0 45.0)
           (-30.0 30.0)
           (-30.0 30.0)
  end
  begin
     id 12 
     name upperback
     direction 0.0294009 0.99956 0.00404628   
     length 2.15427   
     axis 0 0 0   XYZ
    dof rx ry rz
    limits (-20.0 45.0)
           (-30.0 30.0)
           (-30.0 30.0)
  end
  begin
     id 13 
     name thorax
     direction 0.0151014 0.999868 0.0059419   
     length 2.14898   
     axis 0 0 0   XYZ
    dof rx ry rz
    limits (-20.0 45.0)
           (-30.0 30.0)
           (-30.0 30.0)
  end
  begin
     id 14 
     name lowerneck
     direction -0.0249197 0.989906 0.139515   
     length 1.6861   
     axis 0 0 0   XYZ
    dof rx ry rz
    limits (-20.0 45.0)
           (-30.0 30.0)
           (-30.0 30.0)
  end
  begin
     id 15 
     name upperneck
     direction 0.0438463 0.988795 -0.142693   
     length 1.71276   
     axis 0 0 0   XYZ
    dof rx ry rz
    limits (-20.0 45.0)
           (-30.0 30.0)
           (-30.0 30.0)
  end
  begin
     id 16
     name head
     direction 0.0148499 0.997845 -0.0639186  
     length 1.7209  
     axis 0 0 0   XYZ
    dof rx ry rz
    limits (-20.0 45.0)
           (-30.0 30.0)
           (-30.0 30.0)
  end
  begin
     id 17 
     name lclavicle
     direction 0.940298 0.323464 -0.105876  
     length 3.9048  
     axis 0 0 0   XYZ
    dof ry rz
    limits (-20.0 10.0)
           (0.0 20.0)
  end
  begin
     id 18 
     name lhumerus
     direction 1 -4.48954e-011 -4.9675e-028   
     length 4.6851   
     axis 180 -30 -90   XYZ
    dof rx ry rz
    limits (-60.0 90.0)
           (-90.0 90.0)
           (-90.0 90.0)
  end
  begin
     id 19
     name lradius
     direction 1 -4.48992e-011 -1.03359e-026   
     length 3.39626   
     axis 180 -30 -90   XYZ
    dof rx
    limits (-10.0 170.0)
  end
  begin
     id 20
     name lwrist
     direction 1 -4.48906e-011 -1.67336e-026   
     length 1.69813   
     axis 9.90442e-015 90 90   XYZ
    dof ry
    limits (-180.0 0.0)
 end
  begin
     id 21 
     name lhand
     direction 1 -4.49006e-011 -3.34673e-026   
     length 0.486078   
     axis 2.1355e-014 90 90   XYZ
    dof rx rz
    limits (-90.0 90.0)
           (-45.0 45.0)
  end
  begin
     id 22 
     name lfingers
     direction 1 -4.48992e-011 -6.69345e-026   
     length 0.391889   
     axis 4.27099e-014 90 90   XYZ
    dof rx
    limits (0.0 90.0)
  end
  begin
     id 23
     name lthumb
     direction 0.707107 -6.34926e-011 0.707107   
     length 0.562676   
     axis -90 45 2.85299e-015   XYZ
    dof rx rz
    limits (-45.0 45.0)
           (-45.0 45.0)
  end
  begin
     id 24 
     name rclavicle
     direction -0.882459 0.414895 -0.221648   
     length 3.44646  
     axis 0 0 0   XYZ 
    dof ry rz
    limits (-10.0 20.0)
           (-20.0 0.0)
  end
  begin
     id 25 
     name rhumerus
     direction -1 -4.48962e-011 -2.37984e-027  
     length 5.55576   
     axis 180 30 90   XYZ
    dof rx ry rz
    limits (-90.0 60.0)
           (-90.0 90.0)
           (-90.0 90.0)
  end
  begin
     id 26 
     name rradius
     direction -1 -4.48982e-011 -6.86791e-027   
     length 3.32774   
     axis 180 30 90   XYZ
    dof rx
    limits (-10.0 170.0)
  end
  begin
     id 27 
     name rwrist
     direction -1 -4.48961e-011 -1.67336e-026   
     length 1.66387   
     axis 9.90442e-015 -90 -90   XYZ
    dof ry
    limits (-180.0 0.0)
  end
  begin
     id 28
     name rhand
     direction -1 -4.4897e-011 -3.34673e-026   
     length 0.507628   
     axis 2.1355e-014 -90 -90   XYZ
    dof rx rz
    limits (-90.0 90.0)
           (-45.0 45.0)
  end
  begin
     id 29
     name rfingers
     direction -1 -4.48854e-011 -6.69345e-026   
     length 0.409263   
     axis 4.27099e-014 -90 -90   XYZ
    dof rx
    limits (0.0 90.0)
  end
  begin
     id 30
     name rthumb
     direction -0.707107 -6.34913e-011 0.707107   
     length 0.587622   
     axis -90 -45 -2.85299e-015   XYZ
    dof rx rz
    limits (-45.0 45.0)
           (-45.0 45.0)
  end
:hierarchy
  begin
    root lhipjoint rhipjoint lowerback
    lhipjoint lfemur
    lfemur ltibia
    ltibia lfoot
    lfoot ltoes
    rhipjoint rfemur
    rfemur rtibia
    rtibia rfoot
    rfoot rtoes
    lowerback upperback
    upperback thorax
    thorax lowerneck lclavicle rclavicle
    lowerneck upperneck
    upperneck head
    lclavicle lhumerus
    lhumerus lradius
    lradius lwrist
    lwrist lhand lthumb
    lhand lfingers
    rclavicle rhumerus
    rhumerus rradius
    rradius rwrist
    rwrist rhand rthumb
    rhand rfingers
  end

#!OML:ASF E:\motion texture\Top Level 1\Subject 1\Session 1\male.ASF
:FULLY-SPECIFIED
:DEGREES
81
root 22.2711 17.741 5.34495 114.847 -76.1278 -118.525
lowerback 4.59017 2.80792 10.8602
upperback 0.317565 4.21569 4.56518
thorax -1.80458 1.94693 -1.54473
lowerneck -16.4559 -4.69224 -6.83802
upperneck 14.1973 -6.29428 8.31627
head 7.56218 -2.64608 3.13088
rclavicle -1.37969e-014 -5.94366e-014
rhumerus -4.19714 20.3775 -86.9443
rradius 71.496
rwrist -2.79881
rhand -11.7565 -10.2396
rfingers 7.12502
rthumb 14.2916 -39.7278
lclavicle -1.37969e-014 -5.94366e-014
lhumerus -55.1777 7.00183 75.0952
lradius 33.4223
lwrist -19.0686
lhand -8.4813 9.14217
lfingers 7.12502
lthumb 17.4457 38.3793
rfemur -4.76994 4.63311 39.1098
rtibia 24.7964
rfoot -11.0745 -5.02567
rtoes 18.3487
lfemur -71.4788 12.7556 -7.30276
ltibia 62.2889
lfoot 21.6417 184.11
ltoes 22.3498
82
root 22.126 17.7615 5.34654 115.666 -76.0353 -119.551
lowerback 4.6896 2.93175 10.9886
upperback 0.339708 4.39959 4.48256
thorax -1.80199 2.03843 -1.71196
lowerneck -16.4477 -4.73973 -6.86541
upperneck 14.2486 -6.36352 8.34582
head 7.5852 -2.67792 3.13694
rclavicle 3.99557e-014 2.60408e-014
rhumerus -3.29654 20.441 -86.7017
rradius 72.0283
rwrist -3.06157
rhand -11.6673 -10.1419
rfingers 7.12502
rthumb 14.3776 -39.624
lclavicle 3.99557e-014 2.60408e-014
lhumerus -56.0079 7.11869 74.3728
lradius 33.457
lwrist -18.9011
lhand -8.40321 8.96025
lfingers 7.12502
lthumb 17.5208 38.1907
rfemur -3.68252 4.80259 39.1323
rtibia 24.2202
rfoot -11.2585 -5.07189
rtoes 18.2634
lfemur -74.236 12.6815 -7.7852
ltibia 61.4529
lfoot 22.1002 184.316
ltoes 22.7021
83
root 21.9799 17.7803 5.34921 116.406 -75.9491 -120.483
lowerback 4.78198 3.05046 11.1133
upperback 0.352525 4.57647 4.40892
thorax -1.80567 2.12582 -1.86754
lowerneck -16.4532 -4.79343 -6.9052
upperneck 14.3036 -6.43553 8.36504
head 7.6121 -2.71219 3.14107
rclavicle 3.24267e-015 6.20208e-014
rhumerus -2.47663 20.4876 -86.4482
rradius 72.5557
rwrist -3.29252
rhand -11.63 -10.04
rfingers 7.12502
rthumb 14.4135 -39.5195
lclavicle 3.24267e-015 6.20208e-014
lhumerus -56.7714 7.22974 73.6797
lradius 33.4436
lwrist -18.8235
lhand -8.28019 8.76321
lfingers 7.12502
lthumb 17.6392 37.9831
rfemur -2.63612 4.90362 39.1284
rtibia 23.6793
rfoot -11.4517 -5.04932
rtoes 18.201
lfemur -76.8575 12.5444 -8.21442
ltibia 60.8066
lfoot 22.5333 184.592
ltoes 22.9584
84
root 21.834 17.7976 5.35237 117.037 -75.8789 -121.306
lowerback 4.90303 3.15946 11.2193
upperback 0.35669 4.74501 4.34635
thorax -1.83677 2.20756 -2.00352
lowerneck -16.4791 -4.856 -6.96388
upperneck 14.3691 -6.51335 8.37854
head 7.64691 -2.75003 3.14539
rclavicle 3.72721e-017 1.94809e-014
rhumerus -1.73159 20.5118 -86.184
rradius 73.0746
rwrist -3.45755
rhand -11.6102 -9.94322
rfingers 7.12502
rthumb 14.4326 -39.4214
lclavicle 3.72721e-017 1.94809e-014
lhumerus -57.4748 7.33054 73.0252
lradius 33.3956
lwrist -18.8171
lhand -8.12003 8.57241
lfingers 7.12502
lthumb 17.7933 37.7784
rfemur -1.61422 4.94185 39.0974
rtibia 23.1729
rfoot -11.6535 -4.9831
rtoes 18.1424
lfemur -79.3049 12.345 -8.5849
ltibia 60.3464
lfoot 22.9045 184.97
ltoes 23.1329
85
root 21.6876 17.8138 5.35617 117.73 -75.8117 -122.214
lowerback 5.05855 3.27243 11.2979
upperback 0.361845 4.92282 4.29216
thorax -1.88713 2.29314 -2.11907
lowerneck -16.5066 -4.92447 -7.03866
upperneck 14.4351 -6.59478 8.39017
head 7.68305 -2.79054 3.1512
rclavicle -1.72073e-015 -1.13307e-014
rhumerus -1.06784 20.5181 -85.9145
rradius 73.5845
rwrist -3.5222
rhand -11.6227 -9.83272
rfingers 7.12502
rthumb 14.4206 -39.3117
lclavicle -1.72073e-015 -1.13307e-014
lhumerus -58.1168 7.42927 72.4042
lradius 33.3036
lwrist -18.8712
lhand -7.94633 8.37664
lfingers 7.12502
lthumb 17.9605 37.5673
rfemur -0.590928 4.95843 39.0358
rtibia 22.7062
rfoot -11.8637 -4.8739
rtoes 18.0908
lfemur -81.5374 12.1424 -8.90446
ltibia 60.0712
lfoot 23.1689 185.461
ltoes 23.1337
